<svg xmlns="http://www.w3.org/2000/svg" viewBox="0 0 200 200" fill="none">
  <rect width="200" height="200" fill="#121820"/>
  <rect x="18" y="70" width="164" height="70" rx="10" fill="#2a3544" stroke="#4a5c72" stroke-width="3"/>
  <rect x="28" y="82" width="12" height="10" rx="2" fill="#8aa4c0"/>
  <rect x="44" y="82" width="12" height="10" rx="2" fill="#8aa4c0"/>
  <rect x="60" y="82" width="12" height="10" rx="2" fill="#8aa4c0"/>
  <rect x="76" y="82" width="12" height="10" rx="2" fill="#8aa4c0"/>
  <rect x="92" y="82" width="12" height="10" rx="2" fill="#8aa4c0"/>
  <rect x="108" y="82" width="12" height="10" rx="2" fill="#8aa4c0"/>
  <rect x="124" y="82" width="12" height="10" rx="2" fill="#8aa4c0"/>
  <rect x="140" y="82" width="12" height="10" rx="2" fill="#8aa4c0"/>
  <rect x="156" y="82" width="12" height="10" rx="2" fill="#8aa4c0"/>
  <rect x="28" y="98" width="18" height="10" rx="2" fill="#5c6f86"/>
  <rect x="50" y="98" width="12" height="10" rx="2" fill="#8aa4c0"/>
  <rect x="66" y="98" width="12" height="10" rx="2" fill="#8aa4c0"/>
  <rect x="82" y="98" width="12" height="10" rx="2" fill="#8aa4c0"/>
  <rect x="98" y="98" width="12" height="10" rx="2" fill="#8aa4c0"/>
  <rect x="114" y="98" width="12" height="10" rx="2" fill="#8aa4c0"/>
  <rect x="130" y="98" width="12" height="10" rx="2" fill="#8aa4c0"/>
  <rect x="146" y="98" width="44" height="10" rx="2" fill="#5c6f86"/>
  <rect x="34" y="114" width="100" height="12" rx="3" fill="#3d4f63"/>
  <rect x="138" y="114" width="30" height="12" rx="3" fill="#3d4f63"/>
  <rect x="40" y="52" width="120" height="8" rx="2" fill="#1e2630" opacity=".7"/>
</svg>
