<svg xmlns="http://www.w3.org/2000/svg" viewBox="0 0 200 200" fill="none">
  <rect width="200" height="200" fill="#142018"/>
  <path fill="#3d2a1f" d="M70 130h60v48c0 6-5 11-11 11H81c-6 0-11-5-11-11v-48z"/>
  <path fill="#5c4033" d="M76 130h48v6H76z" opacity=".5"/>
  <path fill="#2d6b45" d="M100 128c-28-40-22-72 8-88 10 28 4 58-8 88z"/>
  <path fill="#3fa06b" d="M100 128c18-34 40-48 62-40-18 24-44 34-62 40z"/>
  <path fill="#52c88a" d="M100 128C78 98 62 70 70 48c20 10 28 38 30 80z"/>
  <path fill="#1e4d32" d="M92 128h16v8H92z"/>
  <circle cx="100" cy="54" r="6" fill="#7df5b5" opacity=".4"/>
</svg>
